<?xml version="1.0" encoding="UTF-8"?>
<svg id="Layer_2" data-name="Layer 2" xmlns="http://www.w3.org/2000/svg" viewBox="0 0 1619.5 1698.11">
  <defs>
    <style>
      .cls-1 {
        fill: #5d5d5d;
      }

      .cls-1, .cls-2, .cls-3, .cls-4 {
        stroke-width: 0px;
      }

      .cls-2 {
        fill: #000;
      }

      .cls-3 {
        fill: #3e3e3e;
      }

      .cls-4 {
        fill: #fff;
      }
    </style>
  </defs>
  <g id="FONDO_NEGRO" data-name="FONDO NEGRO">
    <path class="cls-4" d="M1619.5,716.29l-809.74,981.82-53.55-64.91L0,716.29l38.54-36.93c49.38-47.3,88.21-89.89,122.21-134.01,14.31-18.57,27.48-37.02,40.25-56.41,29.46-44.7,56.32-93.83,82.11-150.2,7.02-15.33,14.12-31.57,21.13-48.27,26.26-62.7,52.58-135.2,82.83-228.14L407.37,0l237.84,113.52,164.55-80.06,57.49,27.98,107.04,52.08L1212.13,0l20.3,62.31c30.2,92.85,56.53,165.35,82.84,228.17,6.99,16.68,14.1,32.92,21.12,48.26,25.81,56.41,52.66,105.54,82.11,150.2,12.86,19.51,26.02,37.95,40.23,56.38,34.07,44.21,72.91,86.8,122.23,134.04l38.54,36.93Z"/>
    <path class="cls-1" d="M425.19,242.79c12.5-33.66,25.36-70.25,38.83-110.48l95.04,45.35-133.87,65.13Z"/>
    <path class="cls-3" d="M156.11,724.83c50.73-51.87,92.38-101.91,129.08-155.01l524.57-250.35,524.55,250.34c36.69,53.09,78.35,103.14,129.1,155.02l-653.65,792.54L156.11,724.83Z"/>
    <path class="cls-1" d="M1060.45,177.67l95.03-45.36c13.47,40.24,26.32,76.82,38.83,110.48l-133.86-65.12Z"/>
    <g>
      <polygon class="cls-2" points="685.76 177.18 645.52 196.77 769.11 255.76 809.74 236.36 685.76 177.18"/>
      <polygon class="cls-2" points="809.75 116.86 933.73 177.18 974.12 157.91 849.74 97.41 809.75 77.95 769.75 97.41 645.37 157.91 685.76 177.18 809.75 116.86"/>
      <polygon class="cls-2" points="809.74 236.36 850.38 255.76 973.98 196.77 933.73 177.18 809.74 236.36"/>
      <path class="cls-2" d="M1553.29,708.24c-48.47-46.43-89.67-91.06-126.23-138.5-14.68-19.04-28.6-38.54-41.95-58.79-30.75-46.64-58.42-97.28-85.09-155.57-7.27-15.89-14.47-32.35-21.64-49.45-27.67-66.06-54.86-141.72-83.98-231.23l-6.18-18.97-214.09,102.18,40.24,19.58-40.38,19.27,277.02,134.78c21.09,49.55,42.05,92.49,64.05,131.79,3.68,6.57,7.41,13.08,11.2,19.53l-475.87-227.11-40.63,19.39,551.49,263.2c42.69,63.13,92.98,122.19,156.15,183.88l-707.65,858.01L102.11,722.22c63.16-61.69,113.44-120.75,156.13-183.87l551.51-263.21-40.64-19.39-475.88,227.11c3.8-6.45,7.53-12.96,11.21-19.53,22.01-39.3,42.95-82.24,64.05-131.79l277.03-134.78-40.39-19.28-216.71,105.43c20.41-51.71,41.31-110.3,63.76-178.42l152.95,72.99,40.24-19.57-214.09-102.18-6.18,18.97c-29.13,89.51-56.31,165.17-83.98,231.23-7.17,17.1-14.37,33.56-21.64,49.45-26.67,58.29-54.34,108.92-85.08,155.56-13.35,20.26-27.29,39.77-41.97,58.82-36.55,47.43-77.76,92.05-126.22,138.48l-11.73,11.24,732.58,888.26,22.69,27.5,22.68-27.5,732.58-888.26-11.73-11.24ZM1167.31,104.49c22.45,68.12,43.35,126.71,63.76,178.42l-216.7-105.42,152.94-73Z"/>
    </g>
    <path class="cls-4" d="M985.48,1091.94h-59.48c-4.97,0-9.69-2.18-12.93-5.95l-160.92-187.86-69.64,70.92v103.01c0,10.98-8.9,19.88-19.88,19.88h-29.84c-10.97,0-19.87-8.9-19.87-19.88v-411.68c0-10.98,8.9-19.87,19.87-19.87h29.84c10.98,0,19.88,8.89,19.88,19.87v209.34l221.93-226.03c2-2.04,4.73-3.18,7.58-3.18h66.4c9.92,0,14.93,11.95,7.98,19.03l-185.32,188.75,192.9,225.18c6.22,7.26,1.06,18.47-8.5,18.47Z"/>
  </g>
</svg>